<svg width="24" height="24" viewBox="0 0 24 24" fill="none" xmlns="http://www.w3.org/2000/svg">
<path d="M23 2.25C23.55 2.25 24 1.9125 24 1.5V0.75C24 0.3375 23.55 0 23 0H1C0.45 0 0 0.3375 0 0.75V1.5C0 1.9125 0.45 2.25 1 2.25H2V9.59531C0.7375 10.0687 0 10.6359 0 11.25C0 14.4 2.1625 17.1656 5.425 18.7734L4.0875 22.0641C3.69375 23.025 4.65625 24 6 24H18C19.3438 24 20.3063 23.025 19.9125 22.0641L18.575 18.7734C21.8375 17.1656 24 14.4 24 11.25C24 10.6359 23.2625 10.0687 22 9.59531V2.25H23ZM5 3.375C5 3.16875 5.225 3 5.5 3H8.5C8.775 3 9 3.16875 9 3.375V4.125C9 4.33125 8.775 4.5 8.5 4.5H5.5C5.225 4.5 5 4.33125 5 4.125V3.375ZM12 12.75C7.18125 12.75 3.275 12.0797 3.275 11.25C3.275 10.4203 7.18125 9.75 12 9.75C16.8187 9.75 20.725 10.4203 20.725 11.25C20.725 12.0797 16.8187 12.75 12 12.75V12.75Z" fill="#FDDC05"/>
</svg>
