<svg width="24" height="24" viewBox="0 0 24 24" fill="none" xmlns="http://www.w3.org/2000/svg">
<path d="M21.933 9.27063L21.371 7.51437L20.3745 4.4C19.519 1.72687 17.4785 0 15.175 0H8.825C6.522 0 4.481 1.72687 3.6255 4.4L2.629 7.51437L2.067 9.27063C0.861 9.84375 0 11.2912 0 13V16C0 17.0075 0.308 17.9169 0.8 18.6206V22C0.8 23.1044 1.5165 24 2.4 24H4C4.8835 24 5.6 23.1044 5.6 22V20H18.4V22C18.4 23.1044 19.1165 24 20 24H21.6C22.4835 24 23.2 23.1044 23.2 22V18.6206C23.692 17.9175 24 17.0081 24 16V13C24 11.2912 23.139 9.84375 21.933 9.27063V9.27063ZM6.5965 5.88562C6.961 4.74687 7.8435 4 8.825 4H15.175C16.1565 4 17.039 4.74687 17.4035 5.88562L18.4 9H5.6L6.5965 5.88562ZM4 15.9875C3.04 15.9875 2.4 15.19 2.4 13.9937C2.4 12.7975 3.04 12 4 12C4.96 12 6.4 13.7944 6.4 14.9906C6.4 16.1869 4.96 15.9875 4 15.9875ZM20 15.9875C19.04 15.9875 17.6 16.1869 17.6 14.9906C17.6 13.7944 19.04 12 20 12C20.96 12 21.6 12.7975 21.6 13.9937C21.6 15.19 20.96 15.9875 20 15.9875V15.9875Z" fill="#FDDC05"/>
</svg>
